<svg width="57" height="41" viewBox="0 0 57 41" fill="none" xmlns="http://www.w3.org/2000/svg">
<path d="M55.6986 31.4074H53.79C53.3366 26.7969 49.5543 23.1487 44.8857 22.9072C44.8728 22.8623 44.8603 22.8173 44.8404 22.7738C44.6117 22.2734 39.2315 10.491 37.9092 7.84615C36.8577 5.74349 35.9828 5.03297 34.6431 5.14248C34.5291 5.09467 34.4068 5.07006 34.2832 5.07007H26.0359C25.789 5.07007 25.5522 5.16815 25.3776 5.34274C25.203 5.51732 25.1049 5.75411 25.1049 6.00102C25.1049 6.24792 25.203 6.48471 25.3776 6.6593C25.5522 6.83389 25.789 6.93197 26.0359 6.93197H30.1934C29.6577 7.36712 29.2657 7.87683 29.0331 8.46144C28.5405 9.69913 28.9386 10.7856 29.0303 11.0057L34.2172 24.4923C34.2803 24.6564 34.3167 24.8162 34.3253 24.9685C34.3691 25.7386 34.1987 26.3178 33.8045 26.7394C33.0687 27.5263 31.7643 27.5495 31.7557 27.5495H23.0223C22.7937 27.5501 22.5681 27.4973 22.3635 27.3953C22.1589 27.2932 21.9811 27.1447 21.8441 26.9617C18.909 22.9842 21.9683 19.1163 24.0531 17.1646C24.2554 16.9764 24.3961 16.7314 24.4565 16.4618C24.517 16.1922 24.4945 15.9106 24.3919 15.654C24.2911 15.3957 24.1145 15.1741 23.8853 15.0181C23.6561 14.8621 23.3851 14.7791 23.1079 14.7801H10.5026C9.87919 14.7802 9.27952 15.0192 8.82689 15.4478C7.64554 16.5582 7.19897 17.6447 7.4993 18.6773C7.78144 19.6475 8.65746 20.2617 9.48462 20.6373C4.73356 25.526 3.86717 31.9303 3.83008 32.221C3.81324 32.3522 3.82457 32.4854 3.86331 32.6119C3.90205 32.7383 3.96731 32.8551 4.05473 32.9543C4.14216 33.0536 4.24974 33.133 4.3703 33.1874C4.49087 33.2418 4.62164 33.2698 4.75389 33.2696H7.56065C7.55423 33.3135 7.5471 33.357 7.5471 33.4027C7.5471 37.5834 10.9485 40.9847 15.1292 40.9847C19.3099 40.9847 22.7112 37.5834 22.7112 33.4027C22.7112 33.357 22.7041 33.3135 22.6977 33.2696H36.5581C36.5517 33.3135 36.5446 33.357 36.5446 33.4027C36.5446 37.5834 39.9459 40.9847 44.1266 40.9847C48.3074 40.9847 51.7087 37.5834 51.7087 33.4027C51.7087 33.357 51.7016 33.3135 51.6952 33.2696H55.699C55.9459 33.2696 56.1827 33.1714 56.3573 32.9968C56.5319 32.8221 56.6299 32.5853 56.6299 32.3383C56.6299 32.0914 56.5317 31.8546 56.3571 31.68C56.1824 31.5054 55.9455 31.4073 55.6986 31.4074ZM51.9149 31.4074H36.8695C37.3303 27.6647 40.527 24.7566 44.392 24.7566C48.2571 24.7566 51.454 27.6647 51.9149 31.4074ZM11.8773 20.9408C12.0097 20.8265 12.1074 20.6773 12.1591 20.5102C12.2108 20.343 12.2144 20.1647 12.1695 19.9956C12.1246 19.8265 12.0331 19.6734 11.9054 19.5539C11.7776 19.4344 11.6188 19.3532 11.4471 19.3197C10.657 19.1659 9.43325 18.663 9.28665 18.1565C9.20355 17.8683 9.50816 17.3629 10.102 16.8047C10.2133 16.7002 10.3553 16.6427 10.5022 16.6427H21.9454C21.0148 17.644 20.0054 18.9787 19.3773 20.5463C18.3222 23.1794 18.6571 25.7803 20.3453 28.0681C20.9667 28.9099 21.9672 29.4124 23.0219 29.4124H31.7554C31.8406 29.4124 33.8559 29.3967 35.151 28.0264C35.91 27.2227 36.2578 26.1588 36.1843 24.864C36.1623 24.5076 36.085 24.1568 35.955 23.8242L30.762 10.323C30.7563 10.3084 30.7556 10.3062 30.7491 10.2916C30.6432 10.0319 30.2237 8.69043 32.3792 7.79229C35.2091 6.61309 35.2099 6.61273 36.2428 8.67937C37.3924 10.9782 41.8117 20.6301 42.9014 23.0131C38.7004 23.6819 35.4142 27.13 34.9937 31.4074H5.87924C6.36255 29.2826 7.86027 24.3835 11.8773 20.9408ZM20.8483 33.4023C20.8483 36.5561 18.2823 39.1221 15.1285 39.1221C11.9746 39.1221 9.40864 36.5565 9.40864 33.4023C9.40864 33.3567 9.40151 33.3132 9.39509 33.2693H20.8611C20.8554 33.3132 20.8483 33.357 20.8483 33.4023ZM49.8457 33.4023C49.8457 36.5561 47.2797 39.1221 44.1259 39.1221C40.9721 39.1221 38.4061 36.5565 38.4061 33.4023C38.4061 33.3567 38.399 33.3132 38.3926 33.2693H49.8586C49.8529 33.3132 49.8457 33.357 49.8457 33.4023Z" fill="black"/>
<path d="M16.1767 0.0153809H3.43914C1.89005 0.0153809 0.629883 1.27555 0.629883 2.82499V10.5076C0.629883 12.0567 1.89005 13.3173 3.43914 13.3173H16.1767C17.7258 13.3173 18.986 12.0571 18.986 10.5076V2.82499C18.986 1.27555 17.7258 0.0153809 16.1767 0.0153809ZM17.1237 10.5076C17.1235 10.7588 17.0236 10.9995 16.8461 11.1771C16.6686 11.3547 16.4278 11.4546 16.1767 11.455H3.43914C3.18803 11.4546 2.94732 11.3547 2.7698 11.1771C2.59227 10.9995 2.49242 10.7588 2.49214 10.5076V2.82499C2.49242 2.57389 2.59227 2.33314 2.7698 2.15555C2.94732 1.97796 3.18803 1.87801 3.43914 1.87764H16.1767C16.4278 1.87801 16.6686 1.97796 16.8461 2.15555C17.0236 2.33314 17.1235 2.57389 17.1237 2.82499V10.5076Z" fill="#751FFF"/>
</svg>
