<svg width="42" height="46" viewBox="0 0 42 46" fill="none" xmlns="http://www.w3.org/2000/svg">
<path d="M40.1231 0H13.0845C12.8492 0 12.6236 0.0934614 12.4572 0.259824C12.2909 0.426186 12.1974 0.651823 12.1974 0.887095V7.75528H3.93913C1.90502 7.75528 0.25 9.41 0.25 11.4441V45.1129C0.25 45.3482 0.343462 45.5738 0.509824 45.7402C0.676187 45.9065 0.901823 46 1.13709 46H28.1754C28.4107 46 28.6364 45.9065 28.8027 45.7402C28.9691 45.5738 29.0625 45.3482 29.0625 45.1129V38.2447H35.858C36.0103 38.2447 36.1599 38.235 36.3089 38.222C36.4822 38.2432 36.5895 38.2447 36.5957 38.2447C36.782 38.2447 36.9538 38.1865 37.0958 38.088C39.3395 37.5315 41.0099 35.506 41.0099 33.0928V0.887095C41.01 0.770614 40.9871 0.655266 40.9425 0.547641C40.898 0.440015 40.8326 0.34222 40.7503 0.259842C40.6679 0.177464 40.5702 0.112116 40.4626 0.0675316C40.355 0.0229473 40.2396 -6.47548e-09 40.1231 0ZM27.2886 44.2258H2.02419V11.4441C2.02474 10.9364 2.22667 10.4497 2.58569 10.0908C2.9447 9.7318 3.43145 9.52994 3.93913 9.52947H27.82C27.5004 10.0662 27.2886 10.7392 27.2886 11.5769V44.2258ZM29.0625 17.236V11.5766C29.0625 10.0286 30.2524 9.61404 30.5739 9.53035C32.6038 9.5821 32.733 11.3403 32.7384 11.691V33.7939C32.7384 34.9702 33.0128 35.8333 33.4134 36.4702H29.0625V17.236ZM39.236 33.0925C39.236 34.8055 37.9536 36.221 36.2992 36.4383C35.685 36.3289 34.5126 35.851 34.5126 33.7942V11.6913C34.5126 11.5914 34.4987 10.6871 34.0211 9.76041C33.3543 8.46732 32.0973 7.75528 30.4816 7.75528H13.9713V1.77419H39.2357L39.236 33.0925Z" fill="black"/>
<path d="M9.23546 32.2709C9.07815 32.2709 8.91906 32.2292 8.77506 32.1411C8.67554 32.0806 8.58892 32.0011 8.52015 31.9071C8.45138 31.8131 8.40181 31.7064 8.37427 31.5933C8.34672 31.4801 8.34175 31.3626 8.35963 31.2475C8.37751 31.1324 8.41789 31.022 8.47847 30.9225L18.301 14.7857C18.4232 14.5848 18.6203 14.4406 18.8488 14.385C18.962 14.3575 19.0795 14.3525 19.1945 14.3704C19.3096 14.3882 19.4201 14.4286 19.5196 14.4891C19.619 14.5496 19.7056 14.6292 19.7744 14.7232C19.8431 14.8172 19.8927 14.9238 19.9202 15.037C19.9478 15.1501 19.9527 15.2676 19.9349 15.3827C19.917 15.4977 19.8767 15.6082 19.8161 15.7077L9.99393 31.8448C9.91481 31.9751 9.80344 32.0827 9.67058 32.1573C9.53772 32.232 9.38785 32.2711 9.23546 32.2709Z" fill="#751FFF"/>
<path d="M9.93774 22.6235C7.5142 22.6235 5.54248 20.6518 5.54248 18.2282C5.54248 15.805 7.5142 13.8333 9.93774 13.8333C12.3613 13.8333 14.333 15.805 14.333 18.2282C14.333 20.6521 12.3613 22.6235 9.93774 22.6235ZM9.93774 15.6077C8.49266 15.6077 7.31667 16.7834 7.31667 18.2285C7.31667 19.6736 8.49266 20.8496 9.93774 20.8496C11.3828 20.8496 12.5588 19.6736 12.5588 18.2285C12.5588 16.7834 11.3828 15.6077 9.93774 15.6077Z" fill="#751FFF"/>
<path d="M19.5847 31.7446C17.1612 31.7446 15.1895 29.7729 15.1895 27.3494C15.1895 24.9258 17.1612 22.9541 19.5847 22.9541C22.0083 22.9541 23.98 24.9258 23.98 27.3494C23.98 29.7729 22.0083 31.7446 19.5847 31.7446ZM19.5847 24.7283C18.1396 24.7283 16.9636 25.9043 16.9636 27.3494C16.9636 28.7944 18.1396 29.9704 19.5847 29.9704C21.0298 29.9704 22.2058 28.7944 22.2058 27.3494C22.2058 25.9043 21.0298 24.7283 19.5847 24.7283Z" fill="#751FFF"/>
</svg>
