<svg width="48" height="41" viewBox="0 0 48 41" fill="none" xmlns="http://www.w3.org/2000/svg">
<path d="M42.4429 25.6784C41.8615 25.4846 41.2248 25.7892 41.031 26.3706C38.8715 32.7382 33.3898 37.3894 26.7729 38.4968C17.3599 40.0749 8.38977 34.1502 6.0365 25.0694L7.80837 26.3152C8.05754 26.4813 8.36208 26.5644 8.63894 26.509C8.91579 26.4536 9.19265 26.3152 9.35876 26.066C9.71867 25.5677 9.60793 24.8756 9.10959 24.5157L5.06751 21.6364C4.56917 21.2765 3.87703 21.3872 3.51712 21.8855L0.637828 25.9553C0.277917 26.4536 0.388659 27.1458 0.886998 27.5057C1.38534 27.8656 2.07747 27.7549 2.43739 27.2565L3.79397 25.3462C6.28567 35.7006 16.4462 42.5112 27.1052 40.7117C34.5249 39.4658 40.6711 34.2333 43.1074 27.0904C43.3289 26.509 43.0243 25.8722 42.4429 25.6784Z" fill="black"/>
<path d="M46.8726 14.6043C46.3742 14.2444 45.6821 14.3551 45.3222 14.8534L43.8825 16.8745C41.9169 5.85565 31.3687 -1.59174 20.2945 0.29087C13.7054 1.39829 8.05752 5.66186 5.20591 11.6973C4.95674 12.251 5.17823 12.9155 5.73194 13.1646C6.28565 13.4138 6.9501 13.1923 7.19927 12.6386C9.77402 7.2953 14.8128 3.4747 20.6821 2.47802C30.4551 0.816895 39.7297 7.2953 41.64 16.9575L39.9512 15.7671C39.4529 15.4071 38.7607 15.5179 38.4008 16.0162C38.0409 16.5146 38.1517 17.2067 38.65 17.5666L42.6921 20.4459C42.9412 20.612 43.2458 20.6951 43.5226 20.6397C43.7995 20.5843 44.0763 20.4459 44.2425 20.1967L47.1217 16.1547C47.4817 15.6563 47.3709 14.9642 46.8726 14.6043Z" fill="black"/>
<path d="M22.5647 27.6165C22.4263 27.6165 22.2602 27.5888 22.1217 27.5335C21.7064 27.3673 21.4573 26.9521 21.4573 26.5091V7.65527C21.4573 7.04619 21.9556 6.54785 22.5647 6.54785C23.1738 6.54785 23.6721 7.04619 23.6721 7.65527V23.9343L30.815 17.1237C31.2579 16.7084 31.9501 16.7084 32.393 17.1514C32.8083 17.5944 32.8083 18.2865 32.3654 18.7295L23.3676 27.312C23.1184 27.5335 22.8416 27.6165 22.5647 27.6165Z" fill="#751FFF"/>
</svg>
