<svg width="53" height="46" viewBox="0 0 53 46" fill="none" xmlns="http://www.w3.org/2000/svg">
<path d="M52.4778 9.18095C52.4778 4.11869 48.3591 0 43.2969 0C38.2476 0 34.1383 4.09763 34.1172 9.14206L22.8142 4.2172C22.6966 4.1658 22.5692 4.14021 22.4409 4.14217C22.3125 4.14412 22.186 4.17358 22.0699 4.22854L13.122 8.45027C12.9906 8.47931 12.8673 8.53744 12.7613 8.62038L1.79824 13.7931C1.77523 13.8038 1.75611 13.8191 1.7344 13.8314C1.72177 13.8385 1.70783 13.8421 1.69552 13.8498C1.68288 13.8579 1.67187 13.8677 1.65955 13.8761C1.60766 13.9126 1.55977 13.9546 1.51666 14.0012C1.51018 14.0083 1.50499 14.0157 1.49884 14.0229C1.4702 14.0563 1.4441 14.0918 1.42075 14.1291C1.41459 14.1389 1.40811 14.1483 1.4026 14.158C1.37762 14.2013 1.35627 14.2466 1.33877 14.2934C1.3352 14.3028 1.33261 14.3125 1.32937 14.3223C1.31535 14.3643 1.30441 14.4073 1.29664 14.4509C1.29502 14.4603 1.29243 14.4697 1.29113 14.4794C1.28524 14.522 1.2821 14.565 1.28174 14.6081V35.9623C1.28174 36.3149 1.48749 36.635 1.80796 36.7818L21.7942 45.9183L21.7991 45.92C21.8641 45.9489 21.9324 45.9698 22.0025 45.9822C22.0547 45.9919 22.1075 45.9987 22.1607 45.999C22.1633 45.999 22.1658 46 22.1681 46C22.2297 46 22.2906 45.9916 22.3502 45.9789L22.3868 45.9712C22.4448 45.9566 22.5015 45.9368 22.5557 45.9109C22.5592 45.9093 22.5634 45.9086 22.567 45.9067L42.8387 35.9134C42.9896 35.839 43.1166 35.7239 43.2054 35.5811C43.2942 35.4383 43.3413 35.2735 43.3413 35.1053V18.3606C48.3831 18.3363 52.4778 14.2283 52.4778 9.18095ZM22.4691 6.03239L34.344 11.2064C34.7175 12.8511 35.5372 14.361 36.713 15.5701L32.3056 17.7427L15.4148 9.36078L22.4691 6.03239ZM22.1542 22.7469L4.32142 14.5948L13.3374 10.341L30.273 18.7449L22.1542 22.7469ZM3.08365 16.0104L21.268 24.3233V43.6962L3.08365 35.3836V16.0104ZM23.0699 43.6498V24.3045L31.5231 20.1376L32.2641 28.5344C32.2731 28.6533 32.3056 28.7692 32.3597 28.8755C32.4139 28.9818 32.4886 29.0762 32.5795 29.1534C32.6704 29.2306 32.7758 29.2889 32.8894 29.325C33.0031 29.3612 33.1228 29.3744 33.2416 29.3639C33.3604 29.3534 33.4759 29.3194 33.5815 29.2639C33.687 29.2084 33.7805 29.1325 33.8565 29.0406C33.9325 28.9487 33.9895 28.8426 34.0242 28.7285C34.0589 28.6144 34.0706 28.4946 34.0586 28.3759L33.2563 19.2831L38.2298 16.8315C39.2326 17.4986 40.3575 17.9607 41.5397 18.1911V34.5454L23.0699 43.6498ZM43.2969 16.56C39.2281 16.56 35.9178 13.2497 35.9178 9.18095C35.9178 5.11216 39.2281 1.80191 43.2969 1.80191C47.3657 1.80191 50.6759 5.11216 50.6759 9.18095C50.6759 13.2494 47.3657 16.56 43.2969 16.56Z" fill="black"/>
<path d="M41.9257 12.7958H41.9124C41.7939 12.794 41.6769 12.7689 41.5682 12.7219C41.4594 12.6748 41.361 12.6068 41.2786 12.5216L38.8465 10.0114C38.6843 9.839 38.5966 9.60974 38.6021 9.37314C38.6075 9.13655 38.7059 8.91161 38.8759 8.74693C39.0458 8.58225 39.2737 8.49103 39.5104 8.493C39.747 8.49496 39.9734 8.58994 40.1406 8.75742L41.9448 10.6193L46.4578 6.2284C46.63 6.06645 46.8589 5.97863 47.0952 5.98386C47.3315 5.9891 47.5563 6.08697 47.7211 6.25638C47.886 6.4258 47.9776 6.65319 47.9764 6.88955C47.9751 7.12591 47.881 7.35231 47.7144 7.51997L42.5543 12.5404C42.386 12.7042 42.1605 12.7958 41.9257 12.7958Z" fill="#751FFF"/>
</svg>
